<?xml version="1.0" encoding="UTF-8" ?>
<!DOCTYPE svg PUBLIC "-//W3C//DTD SVG 1.1//EN" "http://www.w3.org/Graphics/SVG/1.1/DTD/svg11.dtd">
<svg width="421pt" height="435pt" viewBox="0 0 421 435" version="1.1" xmlns="http://www.w3.org/2000/svg">
<g id="#ffffffff">
</g>
<g id="#66813aff">
<path fill="#66813a" opacity="1.00" d=" M 192.44 40.79 C 212.07 37.07 233.07 40.50 250.27 50.75 C 267.85 61.03 281.55 77.90 287.59 97.38 C 292.52 112.54 292.90 129.13 288.70 144.50 C 283.63 164.50 270.41 182.06 253.14 193.20 C 237.29 203.40 217.90 207.99 199.16 205.88 C 183.19 204.25 167.80 197.75 155.37 187.60 C 140.91 175.88 130.54 159.16 126.59 140.96 C 121.90 120.49 125.48 98.29 136.22 80.26 C 148.20 59.88 169.23 45.19 192.44 40.79 M 196.49 46.61 C 172.41 50.11 150.49 65.85 139.53 87.59 C 131.08 103.56 129.00 122.56 132.88 140.14 C 136.88 157.13 146.67 172.76 160.51 183.46 C 177.29 196.79 199.83 202.54 220.95 198.85 C 246.93 194.70 269.99 176.11 279.54 151.60 C 287.16 133.23 287.01 111.80 279.37 93.46 C 272.71 76.99 259.98 63.12 244.31 54.79 C 229.81 47.00 212.76 44.14 196.49 46.61 Z" />
<path fill="#66813a" opacity="1.00" d=" M 248.85 78.81 C 253.12 73.47 262.21 77.62 262.34 84.00 C 262.26 89.32 257.76 92.93 254.01 96.02 C 250.44 98.62 247.29 101.69 244.09 104.70 C 243.32 96.01 243.04 85.94 248.85 78.81 Z" />
<path fill="#66813a" opacity="1.00" d=" M 254.82 98.89 C 258.05 95.30 263.46 92.50 268.20 94.82 C 271.78 96.18 273.12 100.98 271.16 104.16 C 268.37 108.66 263.80 111.68 259.39 114.42 C 253.13 117.78 246.66 121.68 239.31 121.60 C 247.32 116.19 248.81 105.91 254.82 98.89 Z" />
<path fill="#66813a" opacity="1.00" d=" M 139.94 115.94 C 139.43 114.32 139.78 112.62 140.88 111.34 C 143.68 112.62 145.51 115.18 147.49 117.40 C 145.03 117.00 141.76 118.07 139.94 115.94 Z" />
<path fill="#66813a" opacity="1.00" d=" M 147.02 132.98 C 152.38 130.30 158.11 128.15 164.05 127.22 C 160.64 132.58 157.35 138.27 152.34 142.32 C 149.42 144.88 144.13 144.43 142.51 140.62 C 140.67 137.19 144.37 134.40 147.02 132.98 Z" />
<path fill="#66813a" opacity="1.00" d=" M 237.89 131.28 C 243.04 135.18 246.49 140.77 249.94 146.12 C 252.96 151.62 256.24 157.49 256.09 163.97 C 255.97 167.85 253.93 172.46 249.55 172.83 C 245.53 172.96 243.67 168.73 242.36 165.61 C 238.37 154.58 240.45 142.59 237.89 131.28 Z" />
<path fill="#66813a" opacity="1.00" d=" M 155.90 164.91 C 154.99 160.89 158.89 158.43 161.46 156.18 C 161.31 159.07 161.31 162.20 159.61 164.69 C 158.51 165.85 157.28 165.92 155.90 164.91 Z" />
<path fill="#66813a" opacity="1.00" d=" M 61.49 258.06 C 61.16 256.45 62.61 255.48 64.06 255.51 C 69.26 255.18 74.48 255.36 79.68 255.57 C 80.34 256.89 81.01 258.21 81.57 259.58 C 90.54 283.54 99.54 307.49 108.40 331.48 C 109.23 329.90 110.03 328.30 110.74 326.66 C 119.63 305.29 128.61 283.95 137.32 262.50 C 138.58 259.79 139.68 255.91 143.14 255.46 C 147.11 255.27 151.15 255.21 155.09 255.85 C 155.63 257.14 155.77 258.54 155.79 259.93 C 155.72 292.60 155.74 325.28 155.76 357.96 C 155.69 359.67 155.81 361.50 154.98 363.07 C 149.98 363.98 144.86 363.33 139.82 363.18 C 139.04 342.06 139.78 320.91 139.44 299.78 C 132.08 317.02 125.14 334.45 117.58 351.61 C 116.14 354.44 114.96 358.72 111.08 358.75 C 107.51 358.80 102.08 359.94 100.38 355.74 C 92.27 335.62 85.53 314.95 77.14 294.94 C 77.35 315.97 76.40 336.98 76.66 358.00 C 76.55 359.68 76.89 361.55 75.95 363.06 C 70.93 363.74 65.82 363.32 60.77 363.21 C 60.08 350.48 60.89 337.72 60.83 324.98 C 61.10 302.67 60.88 280.36 61.49 258.06 Z" />
</g>
<g id="#f1be48ff">
<path fill="#f1be48" opacity="1.00" d=" M 192.43 61.30 C 195.05 57.36 200.64 58.62 203.71 61.31 C 206.37 63.79 207.15 67.58 207.74 71.02 C 209.10 82.87 207.91 94.82 208.36 106.71 C 210.50 94.71 213.30 82.44 219.98 72.05 C 221.79 69.31 223.74 66.46 226.65 64.79 C 231.17 62.19 237.80 64.29 239.58 69.29 C 241.94 75.56 241.43 82.42 241.06 88.97 C 239.53 108.70 235.73 128.22 235.25 148.03 C 234.97 158.11 235.60 168.34 238.43 178.06 C 241.00 177.37 241.83 174.25 243.88 172.73 C 244.70 172.95 246.33 173.39 247.15 173.61 C 246.25 176.45 245.90 180.31 242.64 181.48 C 237.32 183.01 231.10 180.47 228.36 175.65 C 224.86 169.66 223.43 162.73 222.76 155.90 C 220.97 136.24 224.12 116.58 227.21 97.21 C 228.64 87.66 230.62 78.10 230.41 68.39 C 223.72 74.33 220.37 82.92 217.46 91.15 C 210.69 112.63 210.38 135.41 210.92 157.72 C 208.06 157.53 204.59 157.97 202.47 155.58 C 199.46 152.33 198.57 147.78 197.55 143.61 C 192.56 117.59 196.19 91.08 196.68 64.86 C 190.91 73.71 188.17 84.12 186.68 94.48 C 183.76 116.20 184.21 138.30 187.06 160.01 C 187.90 167.07 189.42 174.09 189.34 181.24 C 186.37 180.94 182.98 180.56 181.13 177.87 C 176.43 171.68 173.42 164.37 171.05 157.02 C 165.77 139.88 163.72 121.89 163.26 104.01 C 163.19 94.16 163.19 84.18 165.35 74.52 C 166.09 72.14 166.54 69.04 169.10 67.91 C 171.42 67.63 174.39 68.49 175.07 71.02 C 176.11 74.92 175.84 79.03 175.98 83.03 C 176.04 105.14 176.44 127.48 181.56 149.10 C 180.06 129.43 179.47 109.52 182.50 89.97 C 184.20 80.00 186.47 69.69 192.43 61.30 Z" />
<path fill="#f1be48" opacity="1.00" d=" M 151.67 87.65 C 153.10 85.99 156.03 85.68 157.49 87.44 C 160.49 90.86 160.93 95.64 161.34 99.98 C 161.63 106.24 161.62 112.52 162.22 118.76 C 157.15 111.66 151.56 104.48 149.39 95.86 L 149.37 95.03 C 149.31 92.42 149.53 89.46 151.67 87.65 Z" />
<path fill="#f1be48" opacity="1.00" d=" M 144.25 103.01 C 147.85 102.35 150.87 105.44 152.96 108.03 C 156.50 112.84 159.04 118.34 163.17 122.73 C 156.02 121.07 148.49 118.20 144.06 112.02 C 142.19 109.46 141.34 105.16 144.25 103.01 Z" />
<path fill="#f1be48" opacity="1.00" d=" M 238.00 123.51 C 247.94 123.37 256.13 116.36 266.02 115.95 C 269.35 115.99 273.39 116.44 275.40 119.48 C 277.10 122.18 278.05 126.12 275.91 128.83 C 272.89 131.25 268.64 130.61 265.04 130.44 C 255.80 129.39 246.49 127.39 238.00 123.51 Z" />
<path fill="#f1be48" opacity="1.00" d=" M 138.70 130.89 C 141.90 128.68 145.70 129.92 149.16 130.63 C 147.17 131.63 145.21 132.87 142.99 133.28 C 141.19 133.51 140.10 131.63 138.70 130.89 Z" />
<path fill="#f1be48" opacity="1.00" d=" M 144.52 147.20 C 147.12 146.01 149.82 145.03 152.57 144.22 C 151.08 146.55 150.09 149.94 146.99 150.56 C 145.86 149.69 145.27 148.36 144.52 147.20 Z" />
<path fill="#f1be48" opacity="1.00" d=" M 196.88 252.88 C 202.94 248.39 211.80 248.67 217.65 253.39 C 222.99 257.87 226.83 263.94 229.43 270.37 C 234.74 283.69 237.65 297.84 239.21 312.07 C 241.01 328.62 241.83 345.32 240.92 361.96 C 240.77 363.92 240.75 365.95 240.03 367.81 C 235.08 367.47 229.39 368.45 224.98 366.00 C 224.30 355.63 225.81 345.17 224.88 334.78 C 212.43 334.06 199.93 335.21 187.47 335.53 C 186.83 342.32 186.49 349.15 186.73 355.97 C 186.72 358.37 186.97 360.89 186.12 363.20 C 181.53 364.72 176.48 363.85 171.72 364.48 C 169.44 354.80 170.78 344.77 171.26 334.96 C 172.42 314.16 175.51 293.28 182.76 273.66 C 185.91 265.89 189.97 257.95 196.88 252.88 M 199.14 276.24 C 194.45 287.00 191.90 298.54 190.02 310.08 C 189.55 312.93 188.97 315.81 189.17 318.73 C 192.04 319.53 195.05 319.23 197.99 319.05 C 206.47 318.32 215.01 318.99 223.49 318.02 C 222.38 304.39 219.77 290.79 215.11 277.91 C 213.48 273.08 210.52 268.82 206.89 265.27 C 203.55 268.33 200.91 272.08 199.14 276.24 Z" />
</g>
<g id="#0077c8ff">
<path fill="#0077c8" opacity="1.00" d=" M 245.68 68.62 C 248.39 66.75 251.15 69.32 252.38 71.66 C 250.30 75.42 246.70 77.88 243.94 81.09 C 243.57 77.00 241.87 71.61 245.68 68.62 Z" />
<path fill="#0077c8" opacity="1.00" d=" M 259.88 93.23 C 261.43 91.04 263.03 88.49 265.83 87.79 C 267.36 88.07 268.79 89.23 268.73 90.92 C 266.47 93.37 262.84 92.73 259.88 93.23 Z" />
<path fill="#0077c8" opacity="1.00" d=" M 245.27 106.08 C 246.00 104.79 249.45 106.59 248.19 107.97 C 247.15 110.90 244.46 112.93 242.15 114.86 L 241.40 114.71 C 241.96 111.61 242.64 108.14 245.27 106.08 Z" />
<path fill="#0077c8" opacity="1.00" d=" M 140.03 125.84 C 137.76 122.13 142.42 118.32 146.01 118.89 C 152.25 119.52 157.90 122.55 163.84 124.36 C 161.18 127.55 156.78 127.99 153.00 128.92 C 148.65 129.68 142.80 130.00 140.03 125.84 Z" />
<path fill="#0077c8" opacity="1.00" d=" M 163.48 130.55 C 164.36 138.27 163.90 146.44 160.73 153.61 C 159.26 156.74 156.36 160.76 152.38 159.50 C 149.43 158.36 149.77 154.52 150.45 152.04 C 152.57 143.65 160.11 138.32 163.48 130.55 Z" />
<path fill="#0077c8" opacity="1.00" d=" M 165.30 149.95 C 167.32 152.10 168.03 155.07 169.31 157.66 C 171.20 162.39 173.83 167.43 172.52 172.67 C 170.43 176.50 164.46 174.30 163.35 170.70 C 160.85 163.89 163.11 156.52 165.30 149.95 Z" />
<path fill="#0077c8" opacity="1.00" d=" M 254.35 257.61 C 258.43 257.20 262.58 257.22 266.67 257.51 C 268.34 257.79 268.33 259.73 268.40 261.05 C 268.29 273.40 267.65 285.74 267.68 298.09 C 278.58 289.56 289.32 280.82 300.15 272.20 C 302.79 270.15 305.23 267.80 308.19 266.20 C 308.50 266.28 309.14 266.42 309.45 266.50 C 312.75 269.99 315.68 273.86 318.25 277.92 C 312.82 283.54 305.74 287.33 300.46 293.08 C 300.72 296.06 302.33 298.66 303.46 301.37 C 311.30 319.34 318.90 337.41 326.71 355.39 C 328.04 358.35 329.35 361.32 330.16 364.47 C 325.51 366.46 321.03 369.08 316.04 370.12 C 315.41 369.36 314.87 368.55 314.43 367.68 C 305.10 346.49 296.36 325.03 286.87 303.93 C 284.08 305.21 281.92 307.47 279.49 309.29 C 275.83 312.38 271.83 315.07 268.34 318.37 C 266.66 319.75 267.03 322.15 266.80 324.08 C 266.59 335.72 266.56 347.37 266.26 359.01 C 266.06 362.13 266.25 365.32 265.39 368.36 C 260.63 369.17 255.67 368.41 250.87 368.17 C 248.62 366.16 250.42 362.63 250.07 359.98 C 249.85 347.95 251.05 335.96 250.75 323.94 C 251.27 303.29 251.82 282.64 252.26 261.99 C 252.40 260.38 252.05 257.71 254.35 257.61 Z" />
</g>
<g id="#bf9bdeff">
<path fill="#bf9bde" opacity="1.00" d=" M 157.21 77.28 C 157.93 74.56 160.84 74.01 163.19 73.50 C 163.26 78.81 162.48 84.08 161.22 89.23 C 158.35 86.07 155.22 81.75 157.21 77.28 Z" />
<path fill="#bf9bde" opacity="1.00" d=" M 144.60 96.95 C 144.96 95.70 145.73 94.63 146.38 93.52 C 147.12 93.90 148.62 94.65 149.37 95.03 L 149.39 95.86 C 149.41 98.34 149.44 100.83 149.39 103.31 C 147.56 101.45 144.76 99.86 144.60 96.95 Z" />
<path fill="#bf9bde" opacity="1.00" d=" M 263.38 114.34 C 265.79 111.72 268.53 109.04 272.14 108.26 C 274.59 108.07 275.71 110.68 277.14 112.16 C 273.16 115.15 268.03 114.53 263.38 114.34 Z" />
<path fill="#bf9bde" opacity="1.00" d=" M 237.72 126.66 C 248.08 128.65 258.64 133.15 265.33 141.61 C 268.14 145.19 270.31 150.91 266.65 154.69 C 264.74 157.48 260.59 156.67 258.47 154.58 C 253.92 150.19 251.56 144.17 248.16 138.95 C 245.35 134.31 241.02 130.91 237.72 126.66 Z" />
<path fill="#bf9bde" opacity="1.00" d=" M 258.78 132.07 C 263.75 131.12 269.72 131.85 273.27 135.77 C 275.61 138.19 274.93 143.81 271.10 144.07 C 265.96 141.32 262.92 136.01 258.78 132.07 Z" />
<path fill="#bf9bde" opacity="1.00" d=" M 256.63 155.44 C 259.20 157.09 263.36 159.24 262.10 162.97 C 261.71 165.25 259.32 165.48 257.52 166.01 C 256.99 162.51 256.68 158.98 256.63 155.44 Z" />
<path fill="#bf9bde" opacity="1.00" d=" M 340.65 256.62 C 344.94 256.10 349.33 256.16 353.63 256.62 C 355.75 256.78 355.64 259.37 355.75 260.92 C 355.85 269.27 355.01 277.61 355.21 285.97 C 355.53 310.66 354.47 335.35 354.65 360.04 C 354.61 361.38 354.51 362.75 354.03 364.01 C 349.00 364.80 343.90 364.34 338.85 364.08 C 337.75 340.41 339.42 316.71 339.03 293.02 C 338.82 282.67 339.62 272.33 339.46 261.98 C 339.64 260.19 339.11 257.95 340.65 256.62 Z" />
</g>
</svg>
